<svg width="72" height="72" viewBox="0 0 72 72" xmlns="http://www.w3.org/2000/svg" role="img" aria-label="Legal Crest LC monogram">
  <defs>
    <linearGradient id="crest-shell" x1="0%" y1="0%" x2="100%" y2="100%">
      <stop offset="0%" stop-color="#0EA5E9" />
      <stop offset="50%" stop-color="#7C3AED" />
      <stop offset="100%" stop-color="#EC4899" />
    </linearGradient>
    <linearGradient id="crest-l" x1="0%" y1="0%" x2="0%" y2="100%">
      <stop offset="0%" stop-color="#F8FAFC" />
      <stop offset="100%" stop-color="#CBD5F5" />
    </linearGradient>
    <linearGradient id="crest-c" x1="0%" y1="0%" x2="100%" y2="0%">
      <stop offset="0%" stop-color="#E0E7FF" />
      <stop offset="100%" stop-color="#A5B4FC" />
    </linearGradient>
  </defs>
  <rect x="4" y="4" width="64" height="64" rx="20" fill="#0F172A" />
  <rect x="5" y="5" width="62" height="62" rx="18" stroke="url(#crest-shell)" stroke-width="2" fill="none" />
  <rect x="8" y="8" width="56" height="56" rx="17" fill="rgba(14,165,233,0.08)" />
  <path d="M20 18h10v30h18v6H20z" fill="url(#crest-l)" />
  <path
    d="M42 20c7.7 0 14 6.3 14 14s-6.3 14-14 14h-10v-6h10c4.4 0 8-3.6 8-8s-3.6-8-8-8h-10v-6z"
    fill="url(#crest-c)"
  />
</svg>
